<svg id="Calque_1" data-name="Calque 1" xmlns="http://www.w3.org/2000/svg" xmlns:xlink="http://www.w3.org/1999/xlink" viewBox="0 0 116.5 190.55"><defs><style>.cls-1{fill:#fff;}.cls-2{fill:url(#Dégradé_sans_nom_33);}</style><linearGradient id="Dégradé_sans_nom_33" x1="409.37" y1="258.12" x2="486.31" y2="258.12" gradientUnits="userSpaceOnUse"><stop offset="0" stop-color="#703a8e"/><stop offset="0.18" stop-color="#91599f"/><stop offset="0.43" stop-color="#b77db4"/><stop offset="0.65" stop-color="#d397c3"/><stop offset="0.85" stop-color="#e4a7cc"/><stop offset="1" stop-color="#eaadcf"/></linearGradient></defs><title>LOGO EVEN&amp;apos;UP 03</title><path class="cls-1" d="M449.77,302.66A46.29,46.29,0,0,1,427.06,216a58.64,58.64,0,0,0-54,76.32h0l0,.07a57.88,57.88,0,0,0,2.54,6.54L429,406.59l53.28-107.48a56.78,56.78,0,0,0,2.62-6.75,58.65,58.65,0,0,0,2-8.3A46.21,46.21,0,0,1,449.77,302.66Z" transform="translate(-370.35 -216.04)"/><path class="cls-2" d="M444.49,283.54a36.26,36.26,0,0,1-7.77-64.13,39.68,39.68,0,1,0,49.59,51.38A36.27,36.27,0,0,1,444.49,283.54Z" transform="translate(-370.35 -216.04)"/></svg>