<svg id="Calque_1" data-name="Calque 1" xmlns="http://www.w3.org/2000/svg" xmlns:xlink="http://www.w3.org/1999/xlink" viewBox="0 0 108.53 176.82"><defs><style>.cls-1{fill:#fff;}.cls-2{fill:url(#Dégradé_sans_nom_33);}</style><linearGradient id="Dégradé_sans_nom_33" x1="412.83" y1="250.82" x2="473.59" y2="250.82" gradientUnits="userSpaceOnUse"><stop offset="0" stop-color="#703a8e"/><stop offset="0.18" stop-color="#91599f"/><stop offset="0.43" stop-color="#b77db4"/><stop offset="0.65" stop-color="#d397c3"/><stop offset="0.85" stop-color="#e4a7cc"/><stop offset="1" stop-color="#eaadcf"/></linearGradient></defs><title>LOGO EVEN&amp;apos;UP 010</title><path class="cls-1" d="M383,360.27l9.42,6.39-1.12,1.65-7.64-5.18-3.19,4.7,7.14,4.84-1.12,1.65-7.14-4.84-3.62,5.34,8,5.44-1.12,1.65-9.81-6.64Z" transform="translate(-372.84 -217.6)"/><path class="cls-1" d="M393.4,367.41l2.24.93-.51,15.89.05,0,11-11.58,2.11.87-13.45,14-1.92-.79Z" transform="translate(-372.84 -217.6)"/><path class="cls-1" d="M410.2,373.81l11.19,2.09-.36,2L412,376.17l-1,5.58,8.47,1.58-.36,2-8.48-1.58-1.18,6.34,9.53,1.78-.36,2-11.65-2.17Z" transform="translate(-372.84 -217.6)"/><path class="cls-1" d="M424.92,376.32l2.71-.12,11.16,14.56h0l-.68-15,2.15-.1.81,18.1-2.71.12-11.15-14.56h-.05l.67,15-2.15.09Z" transform="translate(-372.84 -217.6)"/><path class="cls-1" d="M447.32,380.16l-1.89.44.29-6.37,2.27-.52Z" transform="translate(-372.84 -217.6)"/><path class="cls-1" d="M468.7,378a10.66,10.66,0,0,1,.75,2.74,6.68,6.68,0,0,1-.18,2.61,5.68,5.68,0,0,1-1.33,2.3,7.52,7.52,0,0,1-2.69,1.79,7.62,7.62,0,0,1-3.16.67,5.73,5.73,0,0,1-2.57-.67,6.54,6.54,0,0,1-2-1.7,10.37,10.37,0,0,1-1.43-2.45l-4.34-10.34,2-.83L458,382.14a9.67,9.67,0,0,0,1,1.87,5.13,5.13,0,0,0,1.41,1.38,3.86,3.86,0,0,0,1.81.61,4.77,4.77,0,0,0,2.26-.43,4.84,4.84,0,0,0,1.89-1.31,3.83,3.83,0,0,0,.83-1.72,5.27,5.27,0,0,0,0-2,10.34,10.34,0,0,0-.61-2l-4.22-10,2-.84Z" transform="translate(-372.84 -217.6)"/><path class="cls-1" d="M468,365.44l4.39-3.11a11.89,11.89,0,0,1,2.09-1.19,6.12,6.12,0,0,1,2.12-.5,4.21,4.21,0,0,1,2,.44,4.86,4.86,0,0,1,1.79,1.63,4.76,4.76,0,0,1,1,2.33,4.38,4.38,0,0,1-.29,2.08,6.1,6.1,0,0,1-1.12,1.77,9.16,9.16,0,0,1-1.49,1.34l-3,2.1L480.2,379l-1.75,1.24Zm6.38,5.27,3-2.11a4.35,4.35,0,0,0,1.72-2.11,2.6,2.6,0,0,0-.49-2.43,2.56,2.56,0,0,0-2.13-1.26,4.35,4.35,0,0,0-2.56.92l-3,2.1Z" transform="translate(-372.84 -217.6)"/><path class="cls-1" d="M444.73,286a36.55,36.55,0,0,1-17.93-68.4,46.31,46.31,0,0,0-42.62,60.26h0l0,.06a46.05,46.05,0,0,0,2,5.17l42.12,85L470.4,283.2a45.36,45.36,0,0,0,2.07-5.34,45.92,45.92,0,0,0,1.55-6.55A36.47,36.47,0,0,1,444.73,286Z" transform="translate(-372.84 -217.6)"/><path class="cls-2" d="M440.57,270.9a28.64,28.64,0,0,1-6.15-50.64,31.33,31.33,0,1,0,39.17,40.57A28.64,28.64,0,0,1,440.57,270.9Z" transform="translate(-372.84 -217.6)"/></svg>